<svg id="icons" enable-background="new 0 0 64 64" height="512" viewBox="0 0 64 64" width="512" xmlns="http://www.w3.org/2000/svg"><path d="m5 8.5v4.01 3.99 4 4 4 4 4 4 4h54v-16-4-4-4-4-4z" fill="#fff"/><path d="m1 24.5h4v4h-4z" fill="#94c1ff"/><path d="m1 16.5h4v4h-4z" fill="#94c1ff"/><path d="m59 12.5h4v4h-4z" fill="#94c1ff"/><path d="m39 48.5 2 8h-18l2-8z" fill="#d7e9ff"/><path d="m5 40.5v4h-3.95-.05v-4z" fill="#94c1ff"/><path d="m1 32.5h4v4h-4z" fill="#94c1ff"/><path d="m45 58.5v1h-26v-1c0-1.11.89-2 2-2h2 18 2c1.11 0 2 .89 2 2z" fill="#fff"/><path d="m1 36.5h4v4h-4z" fill="#94c1ff"/><path d="m1.05 44.5h3.95 54 4v2c0 1.1-.9 2-2 2h-22-14-22c-1.1 0-2-.9-2-2v-2z" fill="#fff"/><path d="m1 28.5h4v4h-4z" fill="#94c1ff"/><path d="m59 28.5h4v16h-4z" fill="#94c1ff"/><path d="m59 16.5h4v4h-4z" fill="#94c1ff"/><path d="m59 8.5h4v4h-4z" fill="#94c1ff"/><path d="m1 8.5h4v4.01h-4z" fill="#94c1ff"/><path d="m1 12.51h4v3.99h-4z" fill="#94c1ff"/><path d="m59 20.5h4v4h-4z" fill="#94c1ff"/><path d="m59 24.5h4v4h-4z" fill="#94c1ff"/><path d="m1 20.5h4v4h-4z" fill="#94c1ff"/><path d="m38 16.5h15v19h-15z" fill="#94c1ff"/><circle cx="45.5" cy="26" fill="#d7e9ff" r="1.5"/><circle cx="48.5" cy="31" fill="#d7e9ff" r="1.5"/><circle cx="42.5" cy="21" fill="#d7e9ff" r="1.5"/><path d="m31 24.5v8l-4 4v-8z" fill="#94c1ff"/><path d="m19 28.5v8h-8v-8h4z" fill="#fff"/><path d="m15 24.5v4h-4z" fill="#d7e9ff"/><path d="m27 16.5v8l-4 4v-8z" fill="#94c1ff"/><path d="m31 24.5-4 4h-4l4-4z" fill="#d7e9ff"/><path d="m27 28.5v8h-8v-8h4z" fill="#fff"/><path d="m27 16.5-4 4h-8l4-4z" fill="#d7e9ff"/><path d="m23 20.5v8h-4-4v-4-4z" fill="#fff"/><path d="m63 6.5v2h-4-54-4v-2c0-1.1.9-2 2-2h58c1.1 0 2 .9 2 2z" fill="#d7e9ff"/><g fill="#116fff"><path d="m32.03 47.5c-.553 0-1.005-.447-1.005-1s.442-1 .994-1h.011c.552 0 1 .447 1 1s-.448 1-1 1z"/><path d="m63 45.5h-61.953c-.553 0-1-.447-1-1s.447-1 1-1h61.953c.553 0 1 .447 1 1s-.447 1-1 1z"/><path d="m61 49.5h-58c-1.654 0-3-1.346-3-3v-40c0-1.654 1.346-3 3-3h58c1.654 0 3 1.346 3 3v40c0 1.654-1.346 3-3 3zm-58-44c-.552 0-1 .449-1 1v40c0 .552.448 1 1 1h58c.552 0 1-.448 1-1v-40c0-.551-.448-1-1-1z"/><path d="m23.001 57.5c-.08 0-.162-.01-.243-.03-.536-.134-.862-.677-.728-1.212l2-8c.133-.537.674-.866 1.212-.728.536.134.862.677.728 1.212l-2 8c-.114.455-.521.758-.969.758z"/><path d="m40.999 57.5c-.448 0-.855-.303-.969-.758l-2-8c-.135-.535.191-1.078.728-1.212.534-.138 1.078.191 1.212.728l2 8c.135.535-.191 1.078-.728 1.212-.081.02-.163.03-.243.03z"/><path d="m19 59.5c-.553 0-1-.447-1-1 0-1.654 1.346-3 3-3 .553 0 1 .447 1 1s-.447 1-1 1c-.552 0-1 .448-1 1 0 .553-.447 1-1 1z"/><path d="m45 59.5c-.553 0-1-.447-1-1 0-.552-.448-1-1-1-.553 0-1-.447-1-1s.447-1 1-1c1.654 0 3 1.346 3 3 0 .553-.447 1-1 1z"/><path d="m43 57.5h-22c-.553 0-1-.447-1-1s.447-1 1-1h22c.553 0 1 .447 1 1s-.447 1-1 1z"/><path d="m19 60.5c-.553 0-1-.447-1-1v-1c0-.553.447-1 1-1s1 .447 1 1v1c0 .553-.447 1-1 1z"/><path d="m45 60.5h-26c-.553 0-1-.447-1-1s.447-1 1-1h26c.553 0 1 .447 1 1s-.447 1-1 1z"/><path d="m45 60.5c-.553 0-1-.447-1-1v-1c0-.553.447-1 1-1s1 .447 1 1v1c0 .553-.447 1-1 1z"/><path d="m63 9.5h-62c-.553 0-1-.448-1-1s.447-1 1-1h62c.553 0 1 .448 1 1s-.447 1-1 1z"/><path d="m4.03 7.5c-.553 0-1.005-.448-1.005-1s.442-1 .994-1h.011c.552 0 1 .448 1 1s-.448 1-1 1z"/><path d="m7.029 7.5c-.553 0-1.005-.448-1.005-1s.442-1 .994-1h.011c.552 0 1 .448 1 1s-.448 1-1 1z"/><path d="m10.028 7.5c-.553 0-1.005-.448-1.005-1s.442-1 .994-1h.011c.552 0 1 .448 1 1s-.448 1-1 1z"/><path d="m4.999 45.5c-.553 0-1-.447-1-1v-36c0-.552.447-1 1-1s1 .448 1 1v36c0 .553-.447 1-1 1z"/><path d="m4.999 41.498h-3.999c-.553 0-1-.447-1-1s.447-1 1-1h3.999c.553 0 1 .447 1 1s-.447 1-1 1z"/><path d="m4.999 37.5h-3.999c-.553 0-1-.447-1-1s.447-1 1-1h3.999c.553 0 1 .447 1 1s-.447 1-1 1z"/><path d="m4.999 33.5h-3.999c-.553 0-1-.447-1-1 0-.552.447-1 1-1h3.999c.553 0 1 .448 1 1 0 .553-.447 1-1 1z"/><path d="m4.999 29.502h-3.999c-.553 0-1-.448-1-1s.447-1 1-1h3.999c.553 0 1 .448 1 1s-.447 1-1 1z"/><path d="m4.999 25.502h-3.999c-.553 0-1-.448-1-1s.447-1 1-1h3.999c.553 0 1 .448 1 1s-.447 1-1 1z"/><path d="m4.999 21.504h-3.999c-.553 0-1-.448-1-1s.447-1 1-1h3.999c.553 0 1 .448 1 1s-.447 1-1 1z"/><path d="m4.999 17.504h-3.999c-.553 0-1-.448-1-1s.447-1 1-1h3.999c.553 0 1 .448 1 1s-.447 1-1 1z"/><path d="m4.999 13.506h-3.999c-.553 0-1-.448-1-1s.447-1 1-1h3.999c.553 0 1 .448 1 1s-.447 1-1 1z"/><path d="m59 45.5c-.553 0-1-.447-1-1v-36c0-.552.447-1 1-1s1 .448 1 1v36c0 .553-.447 1-1 1z"/><path d="m63 13.5h-4c-.553 0-1-.448-1-1s.447-1 1-1h4c.553 0 1 .448 1 1s-.447 1-1 1z"/><path d="m63 17.5h-4c-.553 0-1-.448-1-1s.447-1 1-1h4c.553 0 1 .448 1 1s-.447 1-1 1z"/><path d="m63 21.5h-4c-.553 0-1-.448-1-1s.447-1 1-1h4c.553 0 1 .448 1 1s-.447 1-1 1z"/><path d="m63 25.5h-4c-.553 0-1-.448-1-1s.447-1 1-1h4c.553 0 1 .448 1 1s-.447 1-1 1z"/><path d="m63 29.5h-4c-.553 0-1-.448-1-1s.447-1 1-1h4c.553 0 1 .448 1 1s-.447 1-1 1z"/><path d="m52.998 36.499h-15c-.553 0-1-.447-1-1v-19c0-.552.447-1 1-1h15c.553 0 1 .448 1 1v19c0 .553-.447 1-1 1zm-14-2h13v-17h-13z"/><path d="m42.499 23.498c-1.379 0-2.5-1.122-2.5-2.5s1.121-2.5 2.5-2.5 2.5 1.122 2.5 2.5-1.121 2.5-2.5 2.5zm0-3c-.275 0-.5.224-.5.5s.225.5.5.5.5-.224.5-.5-.225-.5-.5-.5z"/><path d="m49.999 21.998h-6c-.553 0-1-.448-1-1s.447-1 1-1h6c.553 0 1 .448 1 1s-.447 1-1 1z"/><path d="m48.499 33.502c-1.379 0-2.5-1.122-2.5-2.5s1.121-2.5 2.5-2.5 2.5 1.122 2.5 2.5-1.121 2.5-2.5 2.5zm0-3c-.275 0-.5.224-.5.5s.225.5.5.5.5-.224.5-.5-.225-.5-.5-.5z"/><path d="m45.498 28.499c-1.379 0-2.5-1.122-2.5-2.5s1.121-2.5 2.5-2.5 2.5 1.122 2.5 2.5-1.121 2.5-2.5 2.5zm0-3c-.275 0-.5.224-.5.5s.225.5.5.5.5-.224.5-.5-.225-.5-.5-.5z"/><path d="m46.999 32.002h-6c-.553 0-1-.448-1-1s.447-1 1-1h6c.553 0 1 .448 1 1s-.447 1-1 1z"/><path d="m43.998 26.999h-2.999c-.553 0-1-.448-1-1s.447-1 1-1h2.999c.553 0 1 .448 1 1s-.447 1-1 1z"/><path d="m49.999 26.999h-3.001c-.553 0-1-.448-1-1s.447-1 1-1h3.001c.553 0 1 .448 1 1s-.447 1-1 1z"/><path d="m19.001 37.502h-8c-.553 0-1-.447-1-1v-8.001c0-.552.447-1 1-1h8c.553 0 1 .448 1 1v8.001c0 .553-.447 1-1 1zm-7-2h6v-6.001h-6z"/><path d="m27.001 37.502h-8c-.553 0-1-.447-1-1v-8.001c0-.552.447-1 1-1h8c.553 0 1 .448 1 1v8.001c0 .553-.447 1-1 1zm-7-2h6v-6.001h-6z"/><path d="m23.001 29.501h-8c-.553 0-1-.448-1-1v-8c0-.552.447-1 1-1h8c.553 0 1 .448 1 1v8c0 .552-.447 1-1 1zm-7-2h6v-6h-6z"/><path d="m27.001 37.502c-.256 0-.512-.098-.707-.293-.391-.391-.391-1.023 0-1.414l4.001-4.001c.391-.391 1.023-.391 1.414 0s.391 1.023 0 1.414l-4.001 4.001c-.195.195-.451.293-.707.293z"/><path d="m27.001 29.501c-.256 0-.512-.098-.707-.293-.391-.391-.391-1.023 0-1.414l4.001-4.001c.391-.391 1.023-.391 1.414 0s.391 1.023 0 1.414l-4.001 4.001c-.195.195-.451.293-.707.293z"/><path d="m23.001 29.499c-.256 0-.512-.098-.707-.293-.391-.391-.391-1.023 0-1.414l4.001-4.001c.391-.391 1.023-.391 1.414 0s.391 1.023 0 1.414l-4.001 4.001c-.195.195-.451.293-.707.293z"/><path d="m23.001 21.499c-.256 0-.512-.098-.707-.293-.391-.391-.391-1.023 0-1.414l4.001-4c.391-.391 1.023-.391 1.414 0s.391 1.023 0 1.414l-4.001 4c-.195.195-.451.293-.707.293z"/><path d="m31.002 33.501c-.553 0-1-.447-1-1v-8.001c0-.552.447-1 1-1s1 .448 1 1v8.001c0 .553-.447 1-1 1z"/><path d="m31.002 25.5h-4c-.553 0-1-.448-1-1s.447-1 1-1h4c.553 0 1 .448 1 1s-.447 1-1 1z"/><path d="m27.002 25.5c-.553 0-1-.448-1-1v-8.001c0-.552.447-1 1-1s1 .448 1 1v8.001c0 .552-.447 1-1 1z"/><path d="m15.001 21.501c-.256 0-.512-.098-.707-.293-.391-.391-.391-1.023 0-1.414l4.002-4.001c.391-.391 1.023-.391 1.414 0s.391 1.023 0 1.414l-4.002 4.001c-.195.195-.451.293-.707.293z"/><path d="m27.002 17.499h-7.999c-.553 0-1-.448-1-1s.447-1 1-1h7.999c.553 0 1 .448 1 1s-.447 1-1 1z"/><path d="m11.001 29.501c-.256 0-.512-.098-.707-.293-.391-.391-.391-1.023 0-1.414l4.001-4.001c.391-.391 1.023-.391 1.414 0s.391 1.023 0 1.414l-4.001 4.001c-.195.195-.451.293-.707.293z"/></g></svg>