<svg height="428pt" viewBox="0 -81 428 428" width="428pt" xmlns="http://www.w3.org/2000/svg"><path d="m428 24c-.015625-13.25-10.75-23.984375-24-24h-380c-13.25.015625-23.984375 10.75-24 24v17.101562h428zm0 0"/><path d="m358 185.945312h-104.210938v38h104.210938zm-83.914062 30c-6.074219 0-11-4.921874-11-11 0-6.074218 4.925781-11 11-11 6.078124 0 11 4.925782 11 11-.003907 6.074219-4.925782 10.996094-11 11zm31 0c-6.074219 0-11-4.921874-11-11 0-6.074218 4.925781-11 11-11 6.078124 0 11 4.925782 11 11-.003907 6.074219-4.925782 10.996094-11 11zm32 0c-6.074219 0-11-4.921874-11-11 0-6.074218 4.925781-11 11-11 6.078124 0 11 4.925782 11 11-.003907 6.074219-4.925782 10.996094-11 11zm0 0"/><path d="m0 53.105469h428v34.316406h-428zm0 0"/><path d="m24 265.894531h380c13.25-.015625 23.984375-10.75 24-24v-142.472656h-428v142.472656c.015625 13.25 10.75 23.984375 24 24zm34-85.949219c0-3.3125 2.6875-6 6-6h300c3.3125 0 6 2.6875 6 6v50c0 3.316407-2.6875 6-6 6h-300c-3.3125 0-6-2.683593-6-6zm0 0"/><path d="m70 185.945312h171.789062v38h-171.789062zm0 0"/></svg>