<svg id="icons" enable-background="new 0 0 64 64" height="512" viewBox="0 0 64 64" width="512" xmlns="http://www.w3.org/2000/svg"><path d="m53.01 38.995c5.521.01 9.99 4.48 9.99 10 0 5.53-4.479 10-10 10-5.52 0-10-4.47-10-10 0-3.54 1.84-6.65 4.62-8.43 1.55-.99 3.4-1.57 5.38-1.57z" fill="#d7e9ff"/><path d="m16 46.005v2.99h-5.93l3-2.99z" fill="#fff"/><path d="m13.07 46.005-3 2.99h-9.049v-2.99z" fill="#d7e9ff"/><path d="m24.09 39.005-.54 2.98-.55 3.02v3.99h-7v-2.99h-2.93-12.049v-.05l6.979-6.95z" fill="#94c1ff"/><path d="m47.62 40.565c-2.78 1.779-4.62 4.89-4.62 8.43h-12v-3.99l-.55-3.02-.53-2.98h16.101z" fill="#94c1ff"/><path d="m29.92 39.005.53 2.98-.11.02h-3.34-3.33l-.12-.02.54-2.98.91-5h2 2.01z" fill="#fff"/><path d="m31 45.005h-8l.55-3.02.12.02h3.33 3.34l.11-.02z" fill="#fff"/><path d="m23 45.005h8v3.99h-8z" fill="#d7e9ff"/><path d="m46.021 9.005h-38.021-6.979-.021v-2c0-1.109.9-2 2-2h47.99c1.109 0 2 .891 2 2v2z" fill="#d7e9ff"/><path d="m53.01 9.005v29.99h-.01c-1.979 0-3.83.58-5.38 1.57l-1.6-1.561v-30h6.97.02z" fill="#94c1ff"/><path d="m30.01 26.005v2h-3.01-3v-2c-1.21-.92-2-2.37-2-4 0-.34.03-.68.1-1 .461-2.279 2.48-4 4.9-4s4.44 1.721 4.9 4c.069.32.1.66.1 1 0 1.63-.78 3.08-1.99 4z" fill="#fff"/><path d="m27 34.005h-2l-.91 5h-16.09v-30h38.021v30h-16.101l-.91-5zm0-17c-2.42 0-4.439 1.721-4.9 4-.069.32-.1.66-.1 1 0 1.63.79 3.08 2 4v2h3 3.01v-2c1.21-.92 1.99-2.37 1.99-4 0-.34-.03-.68-.1-1-.46-2.279-2.48-4-4.9-4z" fill="#5c9eff"/><path d="m8 9.005v30l-6.979 6.95v-36.95z" fill="#94c1ff"/><g fill="#116fff"><path d="m4.03 8.002c-.553 0-1.005-.447-1.005-1s.442-1 .994-1h.011c.552 0 1 .447 1 1s-.448 1-1 1z"/><path d="m7.03 8.002c-.553 0-1.005-.447-1.005-1s.442-1 .994-1h.011c.552 0 1 .447 1 1s-.448 1-1 1z"/><path d="m10.03 8.002c-.553 0-1.005-.447-1.005-1s.442-1 .994-1h.011c.552 0 1 .447 1 1s-.448 1-1 1z"/><path d="m29.032 23.002c-.553 0-1.005-.447-1.005-1s.442-1 .994-1h.011c.552 0 1 .447 1 1s-.448 1-1 1z"/><path d="m25.032 23.002c-.553 0-1.005-.447-1.005-1s.442-1 .994-1h.011c.552 0 1 .447 1 1s-.448 1-1 1z"/><path d="m42.999 49.996h-41.981c-.553 0-1-.447-1-1v-39.994c0-.553.447-1 1-1h51.99c.553 0 1 .447 1 1v29.998c0 .553-.447 1-1 1s-1-.447-1-1v-28.998h-49.99v37.994h40.981c.553 0 1 .447 1 1s-.447 1-1 1z"/><path d="m1 8.002c-.553 0-1-.447-1-1 0-1.654 1.346-3 3-3 .553 0 1 .447 1 1s-.447 1-1 1c-.552 0-1 .448-1 1 0 .553-.447 1-1 1z"/><path d="m1 10.002c-.553 0-1-.447-1-1v-2c0-.553.447-1 1-1s1 .447 1 1v2c0 .553-.447 1-1 1z"/><path d="m52.99 8.002c-.553 0-1-.447-1-1 0-.552-.448-1-1-1-.553 0-1-.447-1-1s.447-1 1-1c1.654 0 3 1.346 3 3 0 .553-.447 1-1 1z"/><path d="m52.99 10.002c-.553 0-1-.447-1-1v-2c0-.553.447-1 1-1s1 .447 1 1v2c0 .553-.447 1-1 1z"/><path d="m50.99 6.002h-47.99c-.553 0-1-.447-1-1s.447-1 1-1h47.99c.553 0 1 .447 1 1s-.447 1-1 1z"/><path d="m23.003 46.004c-.06 0-.119-.005-.18-.017-.544-.099-.904-.619-.805-1.162l2-11.002c.098-.544.618-.91 1.162-.805.544.099.904.619.805 1.162l-2 11.002c-.087.484-.507.822-.982.822z"/><path d="m31.001 46.004c-.475 0-.896-.339-.983-.822l-1.992-11.002c-.098-.543.263-1.063.807-1.162.542-.099 1.063.264 1.162.807l1.991 11.002c.098.543-.263 1.063-.807 1.162-.059.01-.119.015-.178.015z"/><path d="m31.002 46.004h-8c-.553 0-1-.447-1-1s.447-1 1-1h8c.553 0 1 .447 1 1s-.447 1-1 1z"/><path d="m29.011 35.002h-4.009c-.553 0-1-.447-1-1s.447-1 1-1h4.009c.553 0 1 .447 1 1s-.448 1-1 1z"/><path d="m23.002 50.004c-.553 0-1-.447-1-1v-4c0-.553.447-1 1-1s1 .447 1 1v4c0 .553-.447 1-1 1z"/><path d="m31.002 50.004c-.553 0-1-.447-1-1v-4c0-.553.447-1 1-1s1 .447 1 1v4c0 .553-.447 1-1 1z"/><path d="m27.002 35.002c-.553 0-1-.447-1-1v-1c0-.553.447-1 1-1s1 .447 1 1v1c0 .553-.447 1-1 1z"/><path d="m30.338 43.004h-6.669c-.553 0-1-.447-1-1s.447-1 1-1h6.669c.553 0 1 .447 1 1s-.447 1-1 1z"/><path d="m27.002 44.004c-.553 0-1-.447-1-1v-1c0-.553.447-1 1-1s1 .447 1 1v1c0 .553-.447 1-1 1z"/><path d="m24.002 29.002c-.553 0-1-.447-1-1v-2.002c0-.553.447-1 1-1s1 .447 1 1v2.002c0 .553-.447 1-1 1z"/><path d="m30.006 29.002h-6.004c-.553 0-1-.447-1-1s.447-1 1-1h6.004c.553 0 1 .447 1 1s-.447 1-1 1z"/><path d="m30.006 29.002c-.553 0-1-.447-1-1v-2c0-.553.447-1 1-1s1 .447 1 1v2c0 .553-.447 1-1 1z"/><path d="m27.002 29.002c-.553 0-1-.447-1-1v-1c0-.553.447-1 1-1s1 .447 1 1v1c0 .553-.447 1-1 1z"/><path d="m30.003 27.002c-.304 0-.604-.138-.801-.399-.331-.441-.242-1.068.199-1.4 1.018-.764 1.601-1.93 1.601-3.2 0-2.206-1.794-4-4-4s-4 1.794-4 4c0 1.268.582 2.435 1.598 3.199.441.333.529.96.197 1.4-.331.439-.96.53-1.4.197-1.521-1.146-2.395-2.896-2.395-4.797 0-3.309 2.691-6 6-6s6 2.691 6 6c0 1.877-.897 3.672-2.399 4.8-.18.135-.391.2-.6.2z"/><path d="m19.002 20.002c-.553 0-1-.447-1-1v-2c0-.553.447-1 1-1s1 .447 1 1v2c0 .553-.447 1-1 1z"/><path d="m21.002 22.002c-1.654 0-3-1.346-3-3 0-.553.447-1 1-1s1 .447 1 1c0 .552.448 1 1 1 .553 0 1 .447 1 1s-.447 1-1 1z"/><path d="m22.103 22.002h-1.101c-.553 0-1-.447-1-1s.447-1 1-1h1.101c.553 0 1 .447 1 1s-.448 1-1 1z"/><path d="m35.002 20.002c-.553 0-1-.447-1-1v-2c0-.553.447-1 1-1s1 .447 1 1v2c0 .553-.447 1-1 1z"/><path d="m33.002 22.002c-.553 0-1-.447-1-1s.447-1 1-1c.552 0 1-.448 1-1 0-.553.447-1 1-1s1 .447 1 1c0 1.654-1.346 3-3 3z"/><path d="m33.002 22.002h-1.101c-.553 0-1-.447-1-1s.447-1 1-1h1.101c.553 0 1 .447 1 1s-.447 1-1 1z"/><path d="m1.001 46.977c-.257 0-.513-.098-.708-.294-.391-.392-.389-1.024.002-1.414l6.997-6.973c.392-.391 1.024-.39 1.414.002.391.392.389 1.024-.002 1.414l-6.997 6.973c-.195.194-.451.292-.706.292z"/><path d="m7.998 40.004c-.553 0-1-.447-1-1v-30.006c0-.553.447-1 1-1s1 .447 1 1v30.006c0 .553-.447 1-1 1z"/><path d="m24.093 40.004h-16.095c-.553 0-1-.447-1-1s.447-1 1-1h16.095c.553 0 1 .447 1 1s-.447 1-1 1z"/><path d="m47.619 41.566c-.253 0-.505-.095-.699-.285l-1.596-1.563c-.396-.387-.401-1.02-.016-1.414.388-.395 1.021-.4 1.414-.016l1.596 1.563c.396.387.401 1.02.016 1.414-.196.201-.455.301-.715.301z"/><path d="m46.023 40.004c-.553 0-1-.447-1-1v-30.006c0-.553.447-1 1-1s1 .447 1 1v30.006c0 .553-.447 1-1 1z"/><path d="m46.023 40.004h-16.107c-.553 0-1-.447-1-1s.447-1 1-1h16.107c.553 0 1 .447 1 1s-.447 1-1 1z"/><path d="m53 59.998c-6.065 0-11-4.935-11-11s4.935-11 11-11 11 4.935 11 11-4.935 11-11 11zm0-20c-4.963 0-9 4.037-9 9s4.037 9 9 9 9-4.037 9-9-4.037-9-9-9z"/><path d="m16 47h-14.982c-.553 0-1-.447-1-1s.447-1 1-1h14.982c.553 0 1 .447 1 1s-.447 1-1 1z"/><path d="m16 49.996c-.553 0-1-.447-1-1v-2.996c0-.553.447-1 1-1s1 .447 1 1v2.996c0 .553-.447 1-1 1z"/><path d="m10.068 49.996c-.256 0-.512-.098-.707-.293-.391-.391-.391-1.023 0-1.414l2.996-2.996c.391-.391 1.023-.391 1.414 0s.391 1.023 0 1.414l-2.996 2.996c-.195.195-.451.293-.707.293z"/><path d="m47.003 50.004c-.256 0-.512-.098-.707-.293-.391-.391-.391-1.023 0-1.414l1.999-2c.391-.391 1.023-.391 1.414 0s.391 1.023 0 1.414l-1.999 2c-.195.195-.451.293-.707.293z"/><path d="m49.002 52.004c-.256 0-.512-.098-.707-.293l-1.999-2c-.391-.391-.391-1.023 0-1.414s1.023-.391 1.414 0l1.999 2c.391.391.391 1.023 0 1.414-.195.195-.451.293-.707.293z"/><path d="m59.006 50.004c-.256 0-.512-.098-.707-.293l-1.999-2c-.391-.391-.391-1.023 0-1.414s1.023-.391 1.414 0l1.999 2c.391.391.391 1.023 0 1.414-.195.195-.451.293-.707.293z"/><path d="m57.007 52.004c-.256 0-.512-.098-.707-.293-.391-.391-.391-1.023 0-1.414l1.999-2c.391-.391 1.023-.391 1.414 0s.391 1.023 0 1.414l-1.999 2c-.195.195-.451.293-.707.293z"/><path d="m52.004 53.004c-.104 0-.211-.017-.316-.052-.523-.174-.807-.74-.632-1.265l1.998-6c.175-.523.738-.808 1.266-.632.523.174.807.74.632 1.265l-1.999 6c-.14.419-.53.684-.949.684z"/></g></svg>