<?xml version="1.0"?>
<svg xmlns="http://www.w3.org/2000/svg" height="512px" viewBox="0 0 64 64" width="512px" class=""><g><g id="Video_Game-Setting-Keyboard-Online-Joystick" data-name="Video Game-Setting-Keyboard-Online-Joystick"><path d="m59 35h-54a2.006 2.006 0 0 0 -2 2v18a2.006 2.006 0 0 0 2 2h5v-6a2.015 2.015 0 0 1 2-2 2.006 2.006 0 0 1 2 2v-4a2.015 2.015 0 0 1 2-2 2.006 2.006 0 0 1 2 2v-1a2.015 2.015 0 0 1 2-2 2.006 2.006 0 0 1 2 2v1a2.015 2.015 0 0 1 2-2 2.006 2.006 0 0 1 2 2v5a2.015 2.015 0 0 1 2-2 2.006 2.006 0 0 1 2 2v5h4v-5a2.006 2.006 0 0 1 2-2 2.015 2.015 0 0 1 2 2v-5a2.014 2.014 0 0 1 1.6-1.96 1.752 1.752 0 0 1 .4-.04 2.015 2.015 0 0 1 2 2v-1a2.006 2.006 0 0 1 2-2 2.015 2.015 0 0 1 2 2v1a2.006 2.006 0 0 1 2-2 2.015 2.015 0 0 1 2 2v4a2.006 2.006 0 0 1 2-2 2.015 2.015 0 0 1 2 2v6h5a2.006 2.006 0 0 0 2-2v-18a2.006 2.006 0 0 0 -2-2z" fill="#bddbff" data-original="#BDDBFF" class=""/><path d="m27 23a7 7 0 0 1 7-7h12a7 7 0 0 1 7 7v5a2.006 2.006 0 0 1 -2 2h-3l-4.52-3.57a1.987 1.987 0 0 0 -1.24-.43h-4.48a1.987 1.987 0 0 0 -1.24.43l-4.52 3.57h-3a2.006 2.006 0 0 1 -2-2z" fill="#bddbff" data-original="#BDDBFF" class=""/><path d="m21 24v-2l-2.21-.55a6.159 6.159 0 0 0 -.6-1.45l1.17-1.95-1.41-1.41-.95.57-1 .6a6.159 6.159 0 0 0 -1.45-.6l-.55-2.21h-2l-.55 2.21a6.159 6.159 0 0 0 -1.45.6l-1.95-1.17-1.41 1.41 1.17 1.95a6.159 6.159 0 0 0 -.6 1.45l-2.21.55v2l2.21.55a6.159 6.159 0 0 0 .6 1.45l-1.17 1.95 1.41 1.41 1.95-1.17a6.159 6.159 0 0 0 1.45.6l.55 2.21h2l.55-2.21a6.159 6.159 0 0 0 1.45-.6l1 .6.95.57 1.41-1.41-1.17-1.95a6.159 6.159 0 0 0 .6-1.45zm-8 2a3 3 0 1 1 3-3 3 3 0 0 1 -3 3z" fill="#bddbff" data-original="#BDDBFF" class=""/><path d="m17 11v-6a2.006 2.006 0 0 1 2-2h40a2.006 2.006 0 0 1 2 2v6z" fill="#bddbff" data-original="#BDDBFF" class=""/><g fill="#3d9ae2"><path d="m9 38h2v2h-2z" data-original="#3D9AE2" class="active-path" style="fill:#1273EB" data-old_color="#3D9AE2"/><path d="m13 38h2v2h-2z" data-original="#3D9AE2" class="active-path" style="fill:#1273EB" data-old_color="#3D9AE2"/><path d="m17 38h2v2h-2z" data-original="#3D9AE2" class="active-path" style="fill:#1273EB" data-old_color="#3D9AE2"/><path d="m21 38h2v2h-2z" data-original="#3D9AE2" class="active-path" style="fill:#1273EB" data-old_color="#3D9AE2"/><path d="m25 38h2v2h-2z" data-original="#3D9AE2" class="active-path" style="fill:#1273EB" data-old_color="#3D9AE2"/><path d="m29 38h2v2h-2z" data-original="#3D9AE2" class="active-path" style="fill:#1273EB" data-old_color="#3D9AE2"/><path d="m33 38h2v2h-2z" data-original="#3D9AE2" class="active-path" style="fill:#1273EB" data-old_color="#3D9AE2"/><path d="m37 38h2v2h-2z" data-original="#3D9AE2" class="active-path" style="fill:#1273EB" data-old_color="#3D9AE2"/><path d="m49 42h2v2h-2z" data-original="#3D9AE2" class="active-path" style="fill:#1273EB" data-old_color="#3D9AE2"/><path d="m37 42h2v2h-2z" data-original="#3D9AE2" class="active-path" style="fill:#1273EB" data-old_color="#3D9AE2"/><path d="m25 42h2v2h-2z" data-original="#3D9AE2" class="active-path" style="fill:#1273EB" data-old_color="#3D9AE2"/><path d="m13 42h2v2h-2z" data-original="#3D9AE2" class="active-path" style="fill:#1273EB" data-old_color="#3D9AE2"/><path d="m41 38h2v2h-2z" data-original="#3D9AE2" class="active-path" style="fill:#1273EB" data-old_color="#3D9AE2"/><path d="m45 38h2v2h-2z" data-original="#3D9AE2" class="active-path" style="fill:#1273EB" data-old_color="#3D9AE2"/><path d="m49 38h2v2h-2z" data-original="#3D9AE2" class="active-path" style="fill:#1273EB" data-old_color="#3D9AE2"/><path d="m53 38h2v2h-2z" data-original="#3D9AE2" class="active-path" style="fill:#1273EB" data-old_color="#3D9AE2"/><path d="m9 42h2v2h-2z" data-original="#3D9AE2" class="active-path" style="fill:#1273EB" data-old_color="#3D9AE2"/><path d="m29 42h2v2h-2z" data-original="#3D9AE2" class="active-path" style="fill:#1273EB" data-old_color="#3D9AE2"/><path d="m33 42h2v2h-2z" data-original="#3D9AE2" class="active-path" style="fill:#1273EB" data-old_color="#3D9AE2"/><path d="m29 46h2v2h-2z" data-original="#3D9AE2" class="active-path" style="fill:#1273EB" data-old_color="#3D9AE2"/><path d="m33 46h2v2h-2z" data-original="#3D9AE2" class="active-path" style="fill:#1273EB" data-old_color="#3D9AE2"/><path d="m53 42h2v2h-2z" data-original="#3D9AE2" class="active-path" style="fill:#1273EB" data-old_color="#3D9AE2"/><path d="m59 2h-40a3.009 3.009 0 0 0 -3 3v11.64l-.04.02c-.19-.08-.38-.16-.57-.23l-.42-1.67a1 1 0 0 0 -.97-.76h-2a1 1 0 0 0 -.97.76l-.42 1.67c-.19.07-.38.15-.57.23l-1.48-.88a1 1 0 0 0 -1.22.15l-1.41 1.41a.986.986 0 0 0 -.15 1.22l.88 1.48c-.08.19-.16.38-.23.57l-1.67.42a1 1 0 0 0 -.76.97v2a1 1 0 0 0 .76.97l1.67.42c.07.19.15.38.23.57l-.88 1.48a.986.986 0 0 0 .15 1.22l1.41 1.41a.986.986 0 0 0 1.22.15l1.48-.88c.19.08.38.16.57.23l.42 1.67a1 1 0 0 0 .97.76h2a1 1 0 0 0 .97-.76l.42-1.67c.19-.07.38-.15.57-.23l.04.02v4.64h-11a3.009 3.009 0 0 0 -3 3v18a3.009 3.009 0 0 0 3 3h4v3a1 1 0 0 0 1 1h20a1 1 0 0 0 1-1v-3h2v3a1 1 0 0 0 1 1h20a1 1 0 0 0 1-1v-3h4a3.009 3.009 0 0 0 3-3v-50a3.009 3.009 0 0 0 -3-3zm-43.5 25.33a5.118 5.118 0 0 1 -1.21.49 1.026 1.026 0 0 0 -.71.73l-.36 1.45h-.44l-.36-1.45a1.026 1.026 0 0 0 -.71-.73 5.118 5.118 0 0 1 -1.21-.49 1.012 1.012 0 0 0 -1.01 0l-1.28.77-.31-.31.77-1.28a.988.988 0 0 0 0-1.01 5.118 5.118 0 0 1 -.49-1.21 1.026 1.026 0 0 0 -.73-.71l-1.45-.36v-.44l1.45-.36a1.026 1.026 0 0 0 .73-.71 5.118 5.118 0 0 1 .49-1.21.988.988 0 0 0 0-1.01l-.77-1.28.31-.31 1.28.77a.988.988 0 0 0 1.01 0 5.118 5.118 0 0 1 1.21-.49 1.026 1.026 0 0 0 .71-.73l.36-1.45h.44l.36 1.45a1.026 1.026 0 0 0 .71.73 5.118 5.118 0 0 1 1.21.49 1.012 1.012 0 0 0 1.01 0l1.28-.77.31.31-.77 1.28a.988.988 0 0 0 0 1.01 5.118 5.118 0 0 1 .49 1.21 1.026 1.026 0 0 0 .73.71l1.45.36v.44l-1.45.36a1.026 1.026 0 0 0 -.73.71 5.118 5.118 0 0 1 -.49 1.21.988.988 0 0 0 0 1.01l.77 1.28-.31.31-1.28-.77a1.012 1.012 0 0 0 -1.01 0zm13.5 32.67h-18v-9a1 1 0 0 1 2 0v3a1 1 0 0 0 2 0v-7a1 1 0 0 1 2 0v7a1 1 0 0 0 2 0v-8a1 1 0 0 1 2 0v8a1 1 0 0 0 2 0v-7a1 1 0 0 1 2 0v9a1 1 0 0 0 2 0v-4a1 1 0 0 1 2 0zm24 0h-18v-8a1 1 0 0 1 2 0v4a1 1 0 0 0 2 0v-9a1 1 0 0 1 2 0v7a1 1 0 0 0 2 0v-8a1 1 0 0 1 2 0v8a1 1 0 0 0 2 0v-7a1 1 0 0 1 2 0v7a1 1 0 0 0 2 0v-3a1 1 0 0 1 2 0zm7-5a1 1 0 0 1 -1 1h-4v-5a3 3 0 0 0 -4-2.83v-1.17a3.009 3.009 0 0 0 -3-3 2.934 2.934 0 0 0 -1.47.39 3 3 0 0 0 -5.06 0 2.934 2.934 0 0 0 -1.47-.39 3.009 3.009 0 0 0 -3 3v2.17a3 3 0 0 0 -4 2.83v4h-2v-4a3 3 0 0 0 -4-2.83v-2.17a3.009 3.009 0 0 0 -3-3 2.934 2.934 0 0 0 -1.47.39 3 3 0 0 0 -5.06 0 2.934 2.934 0 0 0 -1.47-.39 3.009 3.009 0 0 0 -3 3v1.17a3 3 0 0 0 -4 2.83v5h-4a1 1 0 0 1 -1-1v-18a1 1 0 0 1 1-1h54a1 1 0 0 1 1 1zm0-20.82a3 3 0 0 0 -1-.18h-41v-3.65a.986.986 0 0 0 .66-.28l1.41-1.41a.986.986 0 0 0 .15-1.22l-.88-1.48c.08-.19.16-.38.23-.57l1.67-.42a1 1 0 0 0 .76-.97v-2a1 1 0 0 0 -.76-.97l-1.67-.42c-.07-.19-.15-.38-.23-.57l.88-1.48a.986.986 0 0 0 -.15-1.22l-1.41-1.41a.986.986 0 0 0 -.66-.28v-3.65h42zm0-24.18h-42v-5a1 1 0 0 1 1-1h40a1 1 0 0 1 1 1z" data-original="#3D9AE2" class="active-path" style="fill:#1273EB" data-old_color="#3D9AE2"/><path d="m20 6h2v2h-2z" data-original="#3D9AE2" class="active-path" style="fill:#1273EB" data-old_color="#3D9AE2"/><path d="m24 6h2v2h-2z" data-original="#3D9AE2" class="active-path" style="fill:#1273EB" data-old_color="#3D9AE2"/><path d="m28 6h2v2h-2z" data-original="#3D9AE2" class="active-path" style="fill:#1273EB" data-old_color="#3D9AE2"/><path d="m13 19a4 4 0 1 0 4 4 4 4 0 0 0 -4-4zm0 6a2 2 0 1 1 2-2 2 2 0 0 1 -2 2z" data-original="#3D9AE2" class="active-path" style="fill:#1273EB" data-old_color="#3D9AE2"/><path d="m46 15h-12a8.009 8.009 0 0 0 -8 8v5a3 3 0 0 0 3 3h3a1 1 0 0 0 .62-.215l4.521-3.57a1 1 0 0 1 .62-.215h4.478a1 1 0 0 1 .62.215l4.521 3.57a1 1 0 0 0 .62.215h3a3 3 0 0 0 3-3v-5a8.009 8.009 0 0 0 -8-8zm6 13a1 1 0 0 1 -1 1h-2.653l-4.247-3.354a3.007 3.007 0 0 0 -1.861-.646h-4.478a3.007 3.007 0 0 0 -1.859.646l-4.249 3.354h-2.653a1 1 0 0 1 -1-1v-5a6.006 6.006 0 0 1 6-6h12a6.006 6.006 0 0 1 6 6z" data-original="#3D9AE2" class="active-path" style="fill:#1273EB" data-old_color="#3D9AE2"/><path d="m34 19h-2v2h-2v2h2v2h2v-2h2v-2h-2z" data-original="#3D9AE2" class="active-path" style="fill:#1273EB" data-old_color="#3D9AE2"/><path d="m46 19h2v2h-2z" data-original="#3D9AE2" class="active-path" style="fill:#1273EB" data-old_color="#3D9AE2"/><path d="m48 21h2v2h-2z" data-original="#3D9AE2" class="active-path" style="fill:#1273EB" data-old_color="#3D9AE2"/><path d="m46 23h2v2h-2z" data-original="#3D9AE2" class="active-path" style="fill:#1273EB" data-old_color="#3D9AE2"/><path d="m44 21h2v2h-2z" data-original="#3D9AE2" class="active-path" style="fill:#1273EB" data-old_color="#3D9AE2"/><path d="m37 19h2v2h-2z" data-original="#3D9AE2" class="active-path" style="fill:#1273EB" data-old_color="#3D9AE2"/><path d="m41 19h2v2h-2z" data-original="#3D9AE2" class="active-path" style="fill:#1273EB" data-old_color="#3D9AE2"/></g></g></g> </svg>
