<svg xmlns="http://www.w3.org/2000/svg" viewBox="0 0 500 500"><!--Design Tools--><g id="background-simple--inject-45"><path d="M47.79,223.07S24.17,283.6,58.9,331.15s93.81,46.24,139.58,61.2c24,7.83,38.84,29.19,59.56,42.19,66.27,41.55,165.8-16.67,188.59-83.91,19.73-58.2,6-112.67-41.11-169.6s-78-99-162.66-107.93S81.6,146.27,47.79,223.07Z" style="fill:#3170FF"></path><path d="M47.79,223.07S24.17,283.6,58.9,331.15s93.81,46.24,139.58,61.2c24,7.83,38.84,29.19,59.56,42.19,66.27,41.55,165.8-16.67,188.59-83.91,19.73-58.2,6-112.67-41.11-169.6s-78-99-162.66-107.93S81.6,146.27,47.79,223.07Z" style="fill:#fff;opacity:0.75"></path></g><g id="Plants--inject-45"><path d="M359,403.69c1.57-3.53,3.87-9.19,4.66-13.68C365,383,355,385.44,355,385.44s5.4-8.3,5-14.95-6.65-3.32-6.65-3.32,5.4-27.4-2.49-32.38-13.29,32-13.29,32-3.32-5.4-9.55-3.32-3.32,18.68-3.32,18.68-7.06-8.3-8.72,0c-1.22,6.12,5.22,16.52,8.69,21.57Z" style="fill:#3170FF;stroke:#263238;stroke-linecap:round;stroke-linejoin:round"></path><line x1="340.05" y1="403.69" x2="347.42" y2="353.62" style="fill:none;stroke:#263238;stroke-linecap:round;stroke-linejoin:round"></line><line x1="341.59" y1="393.55" x2="332.37" y2="375.43" style="fill:none;stroke:#263238;stroke-linecap:round;stroke-linejoin:round"></line><line x1="342.51" y1="386.18" x2="354.18" y2="376.96" style="fill:none;stroke:#263238;stroke-linecap:round;stroke-linejoin:round"></line><path d="M182.17,403.69c2.45-5.48,6-14.28,7.25-21.25,1.94-11-13.54-7.09-13.54-7.09s8.38-12.9,7.74-23.22S173.3,347,173.3,347s8.38-42.56-3.87-50.29-20.64,49.64-20.64,49.64S143.64,338,134,341.17s-5.16,29-5.16,29-11-12.9-13.54,0c-1.9,9.51,8.1,25.66,13.5,33.5Z" style="fill:#3170FF;stroke:#263238;stroke-linecap:round;stroke-linejoin:round"></path><line x1="152.69" y1="403.69" x2="164.14" y2="325.92" style="fill:none;stroke:#263238;stroke-linecap:round;stroke-linejoin:round"></line><line x1="155.07" y1="387.94" x2="140.76" y2="359.8" style="fill:none;stroke:#263238;stroke-linecap:round;stroke-linejoin:round"></line><line x1="156.5" y1="376.49" x2="174.63" y2="362.18" style="fill:none;stroke:#263238;stroke-linecap:round;stroke-linejoin:round"></line></g><g id="Floor--inject-45"><line x1="119.03" y1="403.69" x2="384.97" y2="403.69" style="fill:none;stroke:#263238;stroke-linecap:round;stroke-linejoin:round"></line><line x1="107.21" y1="403.69" x2="111.59" y2="403.69" style="fill:none;stroke:#263238;stroke-linecap:round;stroke-linejoin:round"></line></g><g id="Clouds--inject-45"><path d="M330.21,164.33s-9.46-10.13-17.56-9.46-9.46,8.79-14.19,9.46-12.83-7.43-18.91-4.05-4.73,8.11-9.46,8.78-10.81-4.05-15.54-2a60.21,60.21,0,0,0-10.13,6.08H347.77S345.07,161,330.21,164.33Z" style="fill:none;stroke:#263238;stroke-linecap:round;stroke-linejoin:round"></path><path d="M192.4,130.55s-9.46-10.13-17.56-9.45-9.46,8.78-14.19,9.45-12.83-7.43-18.91-4.05-4.73,8.11-9.46,8.78-10.81-4.05-15.54-2a59.49,59.49,0,0,0-10.13,6.08H210S207.26,127.18,192.4,130.55Z" style="fill:none;stroke:#263238;stroke-linecap:round;stroke-linejoin:round"></path><line x1="174.84" y1="121.1" x2="183.5" y2="119.25" style="fill:none;stroke:#263238;stroke-linecap:round;stroke-linejoin:round"></line><circle cx="183.5" cy="119.25" r="1.5" style="fill:#263238"></circle><rect x="114.72" y="131.71" width="3.31" height="3.31" style="fill:#fff;stroke:#263238;stroke-linecap:round;stroke-linejoin:round"></rect><rect x="129.97" y="133.46" width="3.31" height="3.31" style="fill:#fff;stroke:#263238;stroke-linecap:round;stroke-linejoin:round"></rect><rect x="139.19" y="125.42" width="3.31" height="3.31" style="fill:#fff;stroke:#263238;stroke-linecap:round;stroke-linejoin:round"></rect><rect x="156.59" y="128.34" width="3.31" height="3.31" style="fill:#fff;stroke:#263238;stroke-linecap:round;stroke-linejoin:round"></rect><rect x="172.34" y="119.59" width="3.31" height="3.31" style="fill:#fff;stroke:#263238;stroke-linecap:round;stroke-linejoin:round"></rect><rect x="190.74" y="128.9" width="3.31" height="3.31" style="fill:#fff;stroke:#263238;stroke-linecap:round;stroke-linejoin:round"></rect><rect x="208.31" y="137.68" width="3.31" height="3.31" style="fill:#fff;stroke:#263238;stroke-linecap:round;stroke-linejoin:round"></rect><rect x="105.19" y="137.68" width="3.31" height="3.31" style="fill:#fff;stroke:#263238;stroke-linecap:round;stroke-linejoin:round"></rect></g><g id="Window--inject-45"><path d="M96.92,97V421.64H406.85V97Zm306.5,314.36H100.35V110.72H403.42Z" style="fill:#263238;stroke:#263238;stroke-linecap:round;stroke-linejoin:round"></path><path d="M96.92,97V421.64H406.85V97Zm306.5,314.36H100.35V110.72H403.42Z" style="fill:#fff;opacity:0.2"></path><rect x="100.35" y="110.72" width="303.07" height="300.64" style="fill:none;stroke:#263238;stroke-linecap:round;stroke-linejoin:round"></rect><path d="M108.14,98.66h-6.41v9h7.72V99.9Zm.81,8.43h-6.72V99.24h5.58l1.14,1.08Z" style="fill:#3170FF"></path><line x1="397.55" y1="100.62" x2="392.65" y2="104.87" style="fill:none;stroke:#3170FF;stroke-miterlimit:10"></line><line x1="392.65" y1="100.62" x2="397.55" y2="104.87" style="fill:none;stroke:#3170FF;stroke-miterlimit:10"></line><polyline points="404.08 98.01 404.08 107.81 359.64 107.81 359.64 98.01" style="fill:none;stroke:#3170FF;stroke-miterlimit:10;stroke-width:0.5px"></polyline><line x1="386.44" y1="107.81" x2="386.44" y2="98.34" style="fill:none;stroke:#3170FF;stroke-miterlimit:10;stroke-width:0.5px"></line><line x1="372.39" y1="107.81" x2="372.39" y2="98.34" style="fill:none;stroke:#3170FF;stroke-miterlimit:10;stroke-width:0.5px"></line><rect x="376.64" y="100.46" width="5.55" height="3.92" style="fill:none;stroke:#3170FF;stroke-miterlimit:10"></rect><line x1="367.16" y1="104.22" x2="362.26" y2="104.22" style="fill:none;stroke:#3170FF;stroke-miterlimit:10"></line><rect x="392.37" y="110.64" width="11.05" height="300.72" style="fill:#263238"></rect><rect x="393.11" y="264.66" width="10.04" height="17.69" rx="3.76" ry="3.76" style="fill:#fff;opacity:0.2"></rect></g><g id="tool-bars--inject-45"><rect x="67.25" y="210.91" width="37.33" height="131.16" style="fill:#263238"></rect><rect x="67.25" y="210.91" width="37.33" height="131.16" style="fill:#fff;opacity:0.2"></rect><rect x="70.9" y="228.66" width="13.93" height="14.28" rx="2.17" ry="2.17" style="fill:#263238"></rect><rect x="67.25" y="210.91" width="37.33" height="6.63" style="fill:#263238"></rect><line x1="79.6" y1="218.62" x2="79.6" y2="221.5" style="fill:none;stroke:#263238;stroke-linecap:round;stroke-linejoin:round"></line><line x1="81.03" y1="218.62" x2="81.03" y2="221.5" style="fill:none;stroke:#263238;stroke-linecap:round;stroke-linejoin:round"></line><line x1="82.47" y1="218.62" x2="82.47" y2="221.5" style="fill:none;stroke:#263238;stroke-linecap:round;stroke-linejoin:round"></line><line x1="83.91" y1="218.62" x2="83.91" y2="221.5" style="fill:none;stroke:#263238;stroke-linecap:round;stroke-linejoin:round"></line><line x1="85.35" y1="218.62" x2="85.35" y2="221.5" style="fill:none;stroke:#263238;stroke-linecap:round;stroke-linejoin:round"></line><line x1="86.79" y1="218.62" x2="86.79" y2="221.5" style="fill:none;stroke:#263238;stroke-linecap:round;stroke-linejoin:round"></line><line x1="88.23" y1="218.62" x2="88.23" y2="221.5" style="fill:none;stroke:#263238;stroke-linecap:round;stroke-linejoin:round"></line><line x1="89.67" y1="218.62" x2="89.67" y2="221.5" style="fill:none;stroke:#263238;stroke-linecap:round;stroke-linejoin:round"></line><line x1="91.1" y1="218.62" x2="91.1" y2="221.5" style="fill:none;stroke:#263238;stroke-linecap:round;stroke-linejoin:round"></line><line x1="92.54" y1="218.62" x2="92.54" y2="221.5" style="fill:none;stroke:#263238;stroke-linecap:round;stroke-linejoin:round"></line><path d="M81.89,236.7,75,231a.52.52,0,0,0-.85.45l.81,8.94a.52.52,0,0,0,.39.45l.13,0a.53.53,0,0,0,.43-.22l2-2.94,3.62,0a.53.53,0,0,0,.33-.93Z" style="fill:#fff"></path><polygon points="81.55 237.1 74.65 231.37 75.46 240.31 77.67 237.15 81.55 237.1" style="fill:#263238"></polygon><polygon points="98.44 237.1 91.54 231.37 92.36 240.31 94.56 237.15 98.44 237.1" style="fill:#fff"></polygon><polygon points="101.18 242.19 101.05 240.35 99.41 241.89 101.18 242.19" style="fill:#fff"></polygon><polygon points="101.18 300.8 101.05 298.96 99.41 300.51 101.18 300.8" style="fill:#fff"></polygon><polygon points="101.18 318.79 101.05 316.95 99.41 318.5 101.18 318.79" style="fill:#fff"></polygon><polygon points="101.18 337.24 101.05 335.4 99.41 336.94 101.18 337.24" style="fill:#fff"></polygon><polygon points="84.01 280.03 83.88 278.19 82.24 279.74 84.01 280.03" style="fill:#fff"></polygon><polygon points="84.01 300.8 83.88 298.96 82.24 300.51 84.01 300.8" style="fill:#fff"></polygon><polygon points="84.01 318.79 83.88 316.95 82.24 318.5 84.01 318.79" style="fill:#fff"></polygon><polygon points="84.01 337.24 83.88 335.4 82.24 336.94 84.01 337.24" style="fill:#fff"></polygon><rect x="76.14" y="252" width="1.57" height="11.84" transform="translate(185.54 11.66) rotate(40.41)" style="fill:#fff"></rect><path d="M77.71,253.1c-1.62-1.79-1.65-2.14-.33-4.17-1.79,1.62-2.15,1.65-4.17.34,1.62,1.79,1.65,2.14.34,4.16C75.33,251.81,75.69,251.78,77.71,253.1Z" style="fill:#fff"></path><path d="M84.89,254.07c-1-1.11-1-1.33-.21-2.57-1.1,1-1.32,1-2.57.2,1,1.11,1,1.33.21,2.57C83.42,253.27,83.64,253.26,84.89,254.07Z" style="fill:#fff"></path><path d="M82.88,258.31c-.71-.79-.72-.95-.15-1.84-.78.71-.94.73-1.83.15.71.78.73.94.15,1.83C81.83,257.74,82,257.73,82.88,258.31Z" style="fill:#fff"></path><polygon points="90.65 298.27 91.37 298.96 99.04 289.94 98.33 289.26 90.65 298.27" style="fill:#fff"></polygon><polygon points="101.44 259.6 95.35 254.54 96.07 262.42 98.01 259.64 101.44 259.6" style="fill:#fff"></polygon><path d="M95.27,260.06c-2.92,0-5.3-1.72-5.3-3.84s2.38-3.84,5.3-3.84,5.3,1.72,5.3,3.84S98.2,260.06,95.27,260.06Zm0-7.22c-2.67,0-4.84,1.51-4.84,3.38s2.17,3.38,4.84,3.38,4.84-1.52,4.84-3.38S97.94,252.84,95.27,252.84Z" style="fill:#fff"></path><path d="M92.05,259.29a1.31,1.31,0,1,1,1.3-1.3A1.31,1.31,0,0,1,92.05,259.29Zm0-2.15a.85.85,0,1,0,.84.85A.85.85,0,0,0,92.05,257.14Z" style="fill:#fff"></path><path d="M91.66,260.66l-.15-.43a2.19,2.19,0,0,0,1.32-1,1.55,1.55,0,0,0,.07-1.13l.44-.15a2,2,0,0,1-.09,1.47A2.6,2.6,0,0,1,91.66,260.66Z" style="fill:#fff"></path><rect x="75.98" y="271.25" width="5.73" height="2.66" transform="translate(-58.14 521.07) rotate(-135)" style="fill:#fff"></rect><path d="M71,278.91l.66.67,3.25-3.25a.62.62,0,0,1,.1-.76.64.64,0,1,1,.13,1l-3.24,3.25.62.61L78,279l1.43-3-4-4-3,1.35Z" style="fill:#fff"></path><line x1="70.42" y1="266.19" x2="102.55" y2="266.19" style="fill:none;stroke:#263238;stroke-linecap:round;stroke-linejoin:round"></line><rect x="96.85" y="269.71" width="2.66" height="5.73" transform="translate(-163.99 149.26) rotate(-45)" style="fill:#fff"></rect><path d="M91.74,273.4l-1.46,5.51.66.67,3.25-3.25a.62.62,0,0,1,.1-.76.64.64,0,1,1,.13,1l-3.24,3.25.62.61L97.35,279l1.43-3-4-4Z" style="fill:#fff"></path><path d="M89.76,275c.2-.39.41-.81.62-1.28a3,3,0,0,0,.15-2.51,3.18,3.18,0,0,0-1.88-1.51.26.26,0,0,0-.14.51,2.62,2.62,0,0,1,1.55,1.23,2.46,2.46,0,0,1-.15,2.06c-.21.47-.42.88-.62,1.26-1,2-1.62,3.21,1,5.2a.28.28,0,0,0,.16,0,.25.25,0,0,0,.2-.1.27.27,0,0,0,0-.37C88.33,277.84,88.75,277,89.76,275Z" style="fill:#fff"></path><path d="M70.55,288.39v.52a18.39,18.39,0,0,0,.13,2.36l1-.23a11.52,11.52,0,0,1-.1-1.6h4v8.91H74.09v1h4v-1H76.62v-8.91h3.86v1.87h1c0-.68,0-2.41,0-2.41v-.52Z" style="fill:#fff"></path><ellipse cx="76.48" cy="313.12" rx="5.75" ry="4.15" style="fill:#fff;opacity:0.44"></ellipse><ellipse cx="76.48" cy="313.12" rx="5.75" ry="4.15" style="fill:none;stroke:#fff;stroke-miterlimit:10"></ellipse><path d="M94,313.24l6.32-6.85a.82.82,0,0,1,1-.15h0a.83.83,0,0,1,.27,1.14L96.76,315Z" style="fill:#fff"></path><path d="M93.17,313.81c1.56-.19,4,1.07,3.35,3a2,2,0,0,1-1.06,1,10.24,10.24,0,0,1-4.48.73,1.78,1.78,0,0,0,.87-1.26,12.56,12.56,0,0,0-.08-1.62c0-.77.54-1.81,1.4-1.87" style="fill:#fff"></path><path d="M79.72,328.84a3.42,3.42,0,0,0-.67-1.87l-1.81,1.81a3.83,3.83,0,0,1,.78,2.13,11.39,11.39,0,0,0,.36,2.09l1.78-1.78A10.34,10.34,0,0,1,79.72,328.84Z" style="fill:#fff"></path><path d="M77.63,330.94a3.43,3.43,0,0,0-.67-1.87l-1.82,1.81a3.71,3.71,0,0,1,.79,2.12,11.58,11.58,0,0,0,.35,2.09l1.78-1.78A10.91,10.91,0,0,1,77.63,330.94Z" style="fill:#fff"></path><path d="M80.12,328.81a10.58,10.58,0,0,0,.36,2.09l2.61-2.62-2.67-2.67-1.08,1.08A3.79,3.79,0,0,1,80.12,328.81Z" style="fill:#fff"></path><path d="M75.53,333a3.42,3.42,0,0,0-.67-1.87l-1.52,1.52-1.12,3.46a.3.3,0,0,0,.39.38L76,335.38A11.86,11.86,0,0,1,75.53,333Zm-2.15,2.31.6-1.83,1.21,1.21Z" style="fill:#fff"></path><path d="M90.89,330.48l-2,2,4.7,4.71,2-2,.29.29,4.7-4.71-5.27-5.28-4.71,4.71ZM93.6,336,90,332.47l1.42-1.42L95,334.61Z" style="fill:#fff"></path><polygon points="73.8 212.66 73.8 213.29 72.49 214.4 73.8 215.5 73.8 216.13 71.74 214.4 73.8 212.66" style="fill:#fff"></polygon><polygon points="71.54 212.66 71.54 213.29 70.24 214.4 71.54 215.5 71.54 216.13 69.48 214.4 71.54 212.66" style="fill:#fff"></polygon><rect x="310.75" y="150.89" width="131.96" height="87.34" style="fill:#263238"></rect><rect x="355.46" y="154.54" width="87.25" height="16.79" style="fill:#fff;opacity:0.1"></rect><polygon points="355.46 171.34 355.46 154.54 310.75 154.54 310.75 238.23 442.71 238.23 442.71 171.34 355.46 171.34" style="fill:#fff;opacity:0.2"></polygon><rect x="319.48" y="186.98" width="6.45" height="6.45" style="fill:#fff"></rect><rect x="322.7" y="190.2" width="6.45" height="6.45" style="fill:#fff"></rect><polygon points="342.94 190.2 346.16 190.2 346.16 186.98 339.71 186.98 339.71 193.43 342.94 193.43 342.94 190.2" style="fill:#fff"></polygon><path d="M349.66,196.92h-7v-7h7Zm-6.45-.55h5.9v-5.89h-5.9Z" style="fill:#fff"></path><path d="M366.94,193.7h-7v-7h7Zm-6.44-.55h5.9v-5.9h-5.9Z" style="fill:#fff"></path><path d="M370.17,196.92h-7v-7h7Zm-6.45-.55h5.9v-5.89h-5.9Z" style="fill:#fff"></path><rect x="363.45" y="190.2" width="3.22" height="3.22" style="fill:#fff"></rect><path d="M387.3,226.55h-6.63v-6.63h6.63Zm-6.45-.18h6.27V220.1h-6.27Z" style="fill:#fff"></path><path d="M390.71,230h-7v-7h7Zm-6.45-.54h5.9v-5.9h-5.9Z" style="fill:#fff"></path><rect x="383.99" y="223.24" width="3.22" height="3.22" style="fill:#fff"></rect><path d="M408.16,226.73h-7v-7h7Zm-6.44-.55h5.89v-5.89h-5.89Z" style="fill:#fff"></path><path d="M411.38,230h-7v-7h7Zm-6.44-.54h5.9v-5.9h-5.9Z" style="fill:#fff"></path><polygon points="428.47 223.24 428.47 226.46 425.25 226.46 425.25 229.68 431.7 229.68 431.7 223.24 428.47 223.24" style="fill:#fff"></polygon><path d="M432,230h-7v-3.77h3.22V223H432Zm-6.45-.54h5.9v-5.9h-2.67v3.22h-3.23Z" style="fill:#fff"></path><path d="M428.75,226.73h-7v-7h7Zm-6.45-.55h5.9v-5.89h-5.9Z" style="fill:#fff"></path><polygon points="321.95 222.14 325.54 222.14 325.54 219.29 319.09 219.29 319.09 225.73 321.95 225.73 321.95 222.14" style="fill:#fff"></polygon><rect x="322.68" y="222.87" width="2.49" height="2.49" style="fill:#fff"></rect><polygon points="325.9 222.51 325.9 226.1 322.32 226.1 322.32 228.96 328.76 228.96 328.76 222.51 325.9 222.51" style="fill:#fff"></polygon><polygon points="387.05 190.2 387.05 186.98 380.6 186.98 380.6 193.43 383.82 193.43 383.82 190.2 387.05 190.2" style="fill:#fff"></polygon><polygon points="387.05 190.2 387.05 193.43 383.82 193.43 383.82 196.65 390.27 196.65 390.27 190.2 387.05 190.2" style="fill:#fff"></polygon><polygon points="342.07 222.02 346.13 222.02 346.13 219.04 339.68 219.04 339.68 225.49 342.07 225.49 342.07 222.02" style="fill:#fff"></polygon><rect x="342.72" y="222.75" width="6.63" height="5.96" style="fill:#fff"></rect><polygon points="366.71 223 366.71 219.77 360.27 219.77 360.27 226.22 363.03 226.22 363.03 223.28 363.76 223.28 363.76 229.44 369.94 229.44 369.94 223 366.71 223" style="fill:#fff"></polygon><line x1="320.05" y1="211.86" x2="346.7" y2="211.86" style="fill:none;stroke:#fff;stroke-miterlimit:10;stroke-width:2px"></line><line x1="320.05" y1="163.3" x2="346.7" y2="163.3" style="fill:none;stroke:#fff;stroke-miterlimit:10;stroke-width:2px"></line><line x1="320.05" y1="180.65" x2="359.47" y2="180.65" style="fill:none;stroke:#fff;stroke-miterlimit:10;stroke-width:2px"></line><polygon points="418.79 158.56 418.79 159.44 420.62 160.99 418.79 162.53 418.79 163.41 421.67 160.99 418.79 158.56" style="fill:#fff"></polygon><polygon points="421.94 158.56 421.94 159.44 423.77 160.99 421.94 162.53 421.94 163.41 424.82 160.99 421.94 158.56" style="fill:#fff"></polygon><line x1="428.47" y1="157.1" x2="428.47" y2="165.49" style="fill:none;stroke:#fff;stroke-miterlimit:10;stroke-width:0.5px"></line><line x1="432.12" y1="159.65" x2="438.7" y2="159.65" style="fill:none;stroke:#fff;stroke-miterlimit:10;stroke-width:0.5px"></line><line x1="432.12" y1="161.11" x2="438.7" y2="161.11" style="fill:none;stroke:#fff;stroke-miterlimit:10;stroke-width:0.5px"></line><line x1="432.12" y1="162.57" x2="438.7" y2="162.57" style="fill:none;stroke:#fff;stroke-miterlimit:10;stroke-width:0.5px"></line><line x1="432.12" y1="164.03" x2="438.7" y2="164.03" style="fill:none;stroke:#fff;stroke-miterlimit:10;stroke-width:0.5px"></line></g></svg>