<?xml version="1.0" encoding="iso-8859-1"?>
<!-- Generator: Adobe Illustrator 19.0.0, SVG Export Plug-In . SVG Version: 6.00 Build 0)  -->
<svg version="1.1" id="Capa_1" xmlns="http://www.w3.org/2000/svg" xmlns:xlink="http://www.w3.org/1999/xlink" x="0px" y="0px"
	 viewBox="0 0 512.1 512.1" style="enable-background:new 0 0 512.1 512.1;" xml:space="preserve">
<path style="fill:#A4C2F7;" d="M503.5,42.75v341.3H8.5V42.75c0-9.1,3.6-17.7,10-24.1s15.1-10,24.1-10h426.7c9.1,0,17.7,3.6,24.1,10
	S503.5,33.65,503.5,42.75z"/>
<linearGradient id="SVGID_1_" gradientUnits="userSpaceOnUse" x1="-97.7288" y1="0.7687" x2="-96.8498" y2="1.8688" gradientTransform="matrix(469.3565 0 0 375.4667 45907.4609 -288.1961)">
	<stop  offset="0" style="stop-color:#D4E1F4"/>
	<stop  offset="0.172" style="stop-color:#D4E1F4"/>
	<stop  offset="0.2" style="stop-color:#D4E1F4"/>
	<stop  offset="0.2" style="stop-color:#DAE4F4"/>
	<stop  offset="0.201" style="stop-color:#EBEBF4"/>
	<stop  offset="0.201" style="stop-color:#F6F1F4"/>
	<stop  offset="0.202" style="stop-color:#FDF4F4"/>
	<stop  offset="0.205" style="stop-color:#FFF5F4"/>
	<stop  offset="0.252" style="stop-color:#FFF5F4"/>
	<stop  offset="0.26" style="stop-color:#FFF5F4"/>
	<stop  offset="0.26" style="stop-color:#D4E1F4"/>
	<stop  offset="0.397" style="stop-color:#D4E1F4"/>
	<stop  offset="0.42" style="stop-color:#D4E1F4"/>
	<stop  offset="0.42" style="stop-color:#DAE4F4"/>
	<stop  offset="0.421" style="stop-color:#EBEBF4"/>
	<stop  offset="0.421" style="stop-color:#F6F1F4"/>
	<stop  offset="0.422" style="stop-color:#FDF4F4"/>
	<stop  offset="0.425" style="stop-color:#FFF5F4"/>
	<stop  offset="0.489" style="stop-color:#FFF5F4"/>
	<stop  offset="0.5" style="stop-color:#FFF5F4"/>
	<stop  offset="0.5" style="stop-color:#F9F2F4"/>
	<stop  offset="0.5" style="stop-color:#E8EBF4"/>
	<stop  offset="0.5" style="stop-color:#DDE5F4"/>
	<stop  offset="0.5" style="stop-color:#D6E2F4"/>
	<stop  offset="0.501" style="stop-color:#D4E1F4"/>
	<stop  offset="0.706" style="stop-color:#D4E1F4"/>
	<stop  offset="0.74" style="stop-color:#D4E1F4"/>
	<stop  offset="0.741" style="stop-color:#FFF5F4"/>
	<stop  offset="0.835" style="stop-color:#FFF5F4"/>
	<stop  offset="0.85" style="stop-color:#FFF5F4"/>
	<stop  offset="0.851" style="stop-color:#D4E1F4"/>
</linearGradient>
<path style="fill:url(#SVGID_1_);" d="M477.9,42.75v341.3H8.5V42.75c-0.4-18.4,14-33.7,32.4-34.2h404.6
	C463.9,9.05,478.3,24.35,477.9,42.75z"/>
<path style="fill:#A4C2F7;" d="M503.5,365.15v36c0.5,19.4-14.8,35.5-34.1,36H42.7c-19.4-0.5-34.6-16.6-34.1-36v-36H503.5z"/>
<g>
	<rect x="187" y="409.65" style="fill:#E3E7F2;" width="136.5" height="85.3"/>
	<rect x="187" y="409.65" style="fill:#E3E7F2;" width="110.9" height="85.3"/>
	<path style="fill:#E3E7F2;" d="M477.1,366.95v34.1c0.5,18.4-14,33.6-32.4,34.1H40.2c-18.4-0.5-32.8-15.8-32.4-34.1v-34.1H477.1z"/>
</g>
<rect x="118.7" y="469.35" style="fill:#A4C2F7;" width="273.1" height="34.1"/>
<g>
	<rect x="118.7" y="469.35" style="fill:#E3E7F2;" width="247.5" height="34.1"/>
	<path style="fill:#E3E7F2;" d="M443.7,162.65c0-0.1,0-0.3,0-0.4c0-18.9-15.3-34.1-34.1-34.1c-18.9,0-34.1,15.3-34.1,34.1
		c0,0.1,0,0.3,0,0.4c-10.7,2.2-18.1,12.1-17,23s10.3,19.2,21.2,19.2h59.7c11,0,20.1-8.3,21.2-19.2
		C461.8,174.75,454.4,164.75,443.7,162.65z"/>
	
		<rect x="389.821" y="71.088" transform="matrix(-0.7071 0.7071 -0.7071 -0.7071 763.0253 -122.6802)" style="fill:#E3E7F2;" width="34.2" height="51.2"/>
	
		<rect x="278.303" y="131.409" transform="matrix(-0.7071 0.7071 -0.7071 -0.7071 702.6238 22.982)" style="fill:#E3E7F2;" width="136.499" height="51.2"/>
	<path style="fill:#E3E7F2;" d="M455.1,84.65l-18.1,18.1l-36.2-36.2l18.1-18.1c6.5-6.5,15.9-9,24.7-6.6c8.8,2.4,15.7,9.3,18.1,18.1
		S461.5,78.15,455.1,84.65L455.1,84.65z"/>
	<polyline style="fill:#E3E7F2;" points="316.3,223.35 256,247.55 280.1,187.15 	"/>
</g>
<rect x="8.5" y="298.75" style="fill:#A4C2F7;" width="494.9" height="68.3"/>
<g>
	<rect x="8.5" y="298.75" style="fill:#E3E7F2;" width="469.3" height="68.3"/>
	<path style="fill:#E3E7F2;" d="M119.5,298.75h42.7v12.8c0,11.8-9.6,21.3-21.3,21.3c-11.8,0-21.3-9.6-21.3-21.3v-12.8H119.5z"/>
	<path style="fill:#E3E7F2;" d="M17.1,298.75h42.7v12.8c0,5.7-2.2,11.1-6.2,15.1s-9.4,6.2-15.1,6.2c-11.8,0-21.3-9.6-21.3-21.3
		v-12.8H17.1z"/>
	<path style="fill:#E3E7F2;" d="M162.1,298.75h42.7v12.8c0,5.7-2.2,11.1-6.2,15.1s-9.4,6.2-15.1,6.2c-11.8,0-21.3-9.6-21.3-21.3
		v-12.8H162.1z"/>
	<path style="fill:#E3E7F2;" d="M204.8,298.75h42.7v12.8c0,11.8-9.6,21.3-21.3,21.3c-11.8,0-21.3-9.6-21.3-21.3v-12.8H204.8z"/>
	<path style="fill:#E3E7F2;" d="M247.5,298.75h42.7v12.8c0,11.8-9.6,21.3-21.3,21.3s-21.3-9.6-21.3-21.3v-12.8H247.5z"/>
	<path style="fill:#E3E7F2;" d="M290.1,298.75h42.7v12.8c0,11.8-9.6,21.3-21.3,21.3c-11.8,0-21.3-9.6-21.3-21.3v-12.8H290.1z"/>
	<path style="fill:#E3E7F2;" d="M332.8,298.75h42.7v12.8c0,11.8-9.6,21.3-21.3,21.3c-11.8,0-21.3-9.6-21.3-21.3v-12.8H332.8z"/>
	<path style="fill:#E3E7F2;" d="M375.5,298.75h42.7v12.8c0,11.8-9.6,21.3-21.3,21.3s-21.3-9.6-21.3-21.3v-12.8H375.5z"/>
	<path style="fill:#E3E7F2;" d="M418.1,298.75h42.7v12.8c0,11.8-9.6,21.3-21.3,21.3c-11.8,0-21.3-9.6-21.3-21.3v-12.8H418.1z"/>
	<path style="fill:#E3E7F2;" d="M460.8,298.75h42.7v12.8c0,11.8-9.6,21.3-21.3,21.3s-21.3-9.6-21.3-21.3v-12.8H460.8z"/>
	<path style="fill:#E3E7F2;" d="M247.4,94.35c0-0.1,0-0.3,0-0.4c0-18.9-15.3-34.1-34.1-34.1s-34.1,15.2-34.1,34.1c0,0.1,0,0.3,0,0.4
		c-10.7,2.2-18.1,12.1-17,23s10.3,19.2,21.2,19.2h59.7c11,0,20.1-8.3,21.2-19.2C265.5,106.45,258.2,96.55,247.4,94.35z"/>
	<path style="fill:#E3E7F2;" d="M170.7,187.75h17.1c4.7,0,8.5,3.8,8.5,8.5v17.1c0,4.7-3.8,8.5-8.5,8.5h-17.1c-4.7,0-8.5-3.8-8.5-8.5
		v-17.1C162.1,191.65,166,187.75,170.7,187.75z"/>
	<path style="fill:#E3E7F2;" d="M204.8,187.75h17.1c4.7,0,8.5,3.8,8.5,8.5v17.1c0,4.7-3.8,8.5-8.5,8.5h-17.1c-4.7,0-8.5-3.8-8.5-8.5
		v-17.1C196.3,191.65,200.1,187.75,204.8,187.75z"/>
	<path style="fill:#E3E7F2;" d="M119.5,68.35v298.7H59.7V68.35c0-4.7,3.8-8.5,8.5-8.5h42.7C115.6,59.75,119.5,63.65,119.5,68.35z"/>
</g>
<g>
	<path style="fill:#FFFFFF;" d="M67.6,434.85H42c-18.3-0.5-32.8-15.8-32.3-34.1v-8.5H8.9V42.35c-0.5-18.4,14-33.6,32.4-34.1h25.4
		c-18.3,0.6-32.7,15.8-32.2,34.1v349.9h0.8v8.5c-0.2,8.8,3,17.4,9.1,23.8S58.8,434.65,67.6,434.85z"/>
	<rect x="119.9" y="469.05" style="fill:#FFFFFF;" width="25.5" height="34.1"/>
	<rect x="188.2" y="434.85" style="fill:#FFFFFF;" width="25.5" height="34.1"/>
	<polygon style="fill:#FFFFFF;" points="17.1,42.75 17.1,153.65 17.1,366.95 0,366.95 0,153.65 0,42.75 	"/>
</g>
<g>
	<path style="fill:#428DFF;" d="M8.5,119.55c2.3,0,4.4-0.9,6.1-2.5c3.3-3.4,3.3-8.8,0-12.1l-1.3-1c-0.5-0.3-1-0.6-1.5-0.8
		c-0.5-0.2-1-0.4-1.5-0.5c-0.6-0.1-1.1-0.2-1.7-0.2c-2.3,0-4.4,0.9-6.1,2.5c-3.2,3.4-3.2,8.7,0,12.1c0.8,0.8,1.8,1.4,2.8,1.8
		C6.3,119.25,7.4,119.55,8.5,119.55z"/>
	<path style="fill:#428DFF;" d="M469.3,0.05H42.7C19.1,0.05,0,19.15,0,42.75v34.1c0,4.7,3.8,8.5,8.5,8.5s8.5-3.8,8.5-8.5v-34.1
		c0-14.1,11.5-25.6,25.6-25.6h426.7c14.1,0,25.6,11.5,25.6,25.6v247.5H128V68.35c0-9.4-7.6-17.1-17.1-17.1H68.3
		c-9.4,0-17.1,7.6-17.1,17.1v221.9H17.1v-145.1c0-4.7-3.8-8.5-8.5-8.5s-8.6,3.8-8.6,8.5v256c0,23.6,19.1,42.6,42.7,42.7h136.5v17.1
		h-59.7c-2.3,0-4.4,0.9-6,2.5s-2.5,3.8-2.5,6v34.1c0,2.3,0.9,4.4,2.5,6s3.8,2.5,6,2.5h273.1c2.3,0,4.4-0.9,6-2.5s2.5-3.8,2.5-6
		v-34.1c0-2.3-0.9-4.4-2.5-6s-3.8-2.5-6-2.5h-59.7v-17.1h136.5c23.6,0,42.6-19.1,42.7-42.7V42.75C512,19.15,492.9,0.05,469.3,0.05z
		 M128,338.35c11.5,5.6,25.3,3.2,34.1-6c5.6,5.8,13.3,9,21.3,9s15.7-3.3,21.3-9c5.6,5.8,13.3,9,21.3,9s15.7-3.3,21.3-9
		c5.6,5.8,13.3,9,21.3,9s15.7-3.3,21.3-9c5.6,5.8,13.3,9,21.3,9s15.7-3.3,21.3-9c5.6,5.8,13.3,9,21.3,9s15.7-3.3,21.3-9
		c5.6,5.8,13.3,9,21.3,9s15.7-3.3,21.3-9c5.6,5.8,13.3,9,21.3,9s15.7-3.3,21.3-9c8.9,9.2,22.7,11.7,34.1,6v20.1H128V338.35z
		 M494.9,311.55c0,7.1-5.7,12.8-12.8,12.8s-12.8-5.7-12.8-12.8v-4.3h25.6L494.9,311.55L494.9,311.55z M452.3,311.55
		c0,7.1-5.7,12.8-12.8,12.8c-7.1,0-12.8-5.7-12.8-12.8v-4.3h25.6L452.3,311.55L452.3,311.55z M409.6,311.55
		c0,7.1-5.7,12.8-12.8,12.8s-12.8-5.7-12.8-12.8v-4.3h25.6L409.6,311.55L409.6,311.55z M366.9,311.55c0,7.1-5.7,12.8-12.8,12.8
		c-7.1,0-12.8-5.7-12.8-12.8v-4.3h25.6L366.9,311.55L366.9,311.55z M324.3,311.55c0,7.1-5.7,12.8-12.8,12.8s-12.8-5.7-12.8-12.8
		v-4.3h25.6L324.3,311.55L324.3,311.55z M281.6,311.55c0,7.1-5.7,12.8-12.8,12.8s-12.8-5.7-12.8-12.8v-4.3h25.6L281.6,311.55
		L281.6,311.55z M238.9,311.55c0,7.1-5.7,12.8-12.8,12.8s-12.8-5.7-12.8-12.8v-4.3h25.6V311.55z M196.3,311.55
		c0,7.1-5.7,12.8-12.8,12.8s-12.8-5.7-12.8-12.8v-4.3h25.6V311.55z M153.6,311.55c0,7.1-5.7,12.8-12.8,12.8s-12.8-5.7-12.8-12.8
		v-4.3h25.6V311.55z M68.3,68.35H111v17.1H93.9c-4.7,0-8.5,3.8-8.5,8.5s3.8,8.5,8.5,8.5H111v17.1H93.9c-4.7,0-8.5,3.8-8.5,8.5
		s3.8,8.5,8.5,8.5H111v17.1H93.9c-4.7,0-8.5,3.8-8.5,8.5s3.8,8.5,8.5,8.5H111v17.1H93.9c-4.7,0-8.5,3.8-8.5,8.5s3.8,8.5,8.5,8.5H111
		v17.1H93.9c-4.7,0-8.5,3.8-8.5,8.5s3.8,8.5,8.5,8.5H111v17.2H93.9c-4.7,0-8.5,3.8-8.5,8.5s3.8,8.5,8.5,8.5H111v17.1H93.9
		c-4.7,0-8.5,3.8-8.5,8.5s3.8,8.5,8.5,8.5H111v17.1H93.9c-4.7,0-8.5,3.8-8.5,8.5s3.8,8.5,8.5,8.5H111v17.1H68.3V68.35z M25.6,307.25
		h25.6v4.3c0,7.1-5.7,12.8-12.8,12.8s-12.8-5.7-12.8-12.8C25.6,311.55,25.6,307.25,25.6,307.25z M38.4,341.35c4.4,0,8.8-1,12.8-3
		v20.1H17.1v-26.1C22.7,338.15,30.4,341.35,38.4,341.35z M384,494.95H128v-17.1h256V494.95z M315.7,460.85H196.3v-17.1h119.5v17.1
		H315.7z M469.3,426.75H42.7c-14.1,0-25.6-11.5-25.6-25.6v-25.6H495v25.6C494.9,415.25,483.5,426.75,469.3,426.75z"/>
	<path style="fill:#428DFF;" d="M461.2,42.35c-13.3-13.3-34.9-13.3-48.3,0l-138.8,138.8l0,0c-0.6,0.9-1.3,1.9-1.9,2.8l0,0
		l-24.1,60.3c-1.3,3.2-0.5,6.8,1.9,9.2s6,3.2,9.2,1.9l60.3-24.1l0,0c0.9-0.6,1.9-1.2,2.8-1.9l0,0l31.4-31.4
		c5.2,9.5,15.2,15.3,26,15.4h59.7c14,0,26.2-9.8,29.2-23.5s-4-27.7-16.8-33.5c-2-14.2-11-26.4-23.9-32.6l33.2-33.2
		C474.5,77.25,474.5,55.75,461.2,42.35z M400.8,78.55l24.1,24.1l-12.1,12.1l-24.1-24.1L400.8,78.55z M376.7,102.65l24.1,24.1
		l-84.5,84.5l-24.1-24.1L376.7,102.65z M283.3,202.35l17.9,17.9l-29.8,11.9L283.3,202.35z M435.2,161.45c-0.6,4.5,2.4,8.6,6.8,9.5
		c6.5,1.3,10.9,7.3,10.2,13.8c-0.6,6.5-6.2,11.5-12.7,11.5h-59.7c-6.6,0-12.1-5-12.7-11.6l47.5-47.5
		C426.3,139.45,434.8,149.55,435.2,161.45z M449.1,78.55L437,90.65l-24.1-24.1l12.1-12.1c4.3-4.3,10.6-6,16.5-4.4
		s10.5,6.2,12.1,12.1C455.1,67.95,453.4,74.25,449.1,78.55z"/>
	<path style="fill:#428DFF;" d="M255.6,88.05c-2.9-21.1-21-36.8-42.3-36.8s-39.3,15.7-42.2,36.8c-12.8,5.8-19.8,19.8-16.8,33.5
		s15.1,23.5,29.2,23.5h59.7c14,0,26.2-9.8,29.2-23.5S268.4,93.95,255.6,88.05z M243.2,128.05h-59.7c-6.6,0-12.1-5-12.7-11.5
		c-0.7-6.5,3.7-12.5,10.2-13.8c4-0.8,6.9-4.3,6.9-8.4c0-0.2,0-0.5,0-0.8c0.2-14,11.6-25.2,25.6-25.2s25.4,11.2,25.6,25.2
		c0,0.3,0,0.6,0,0.8c0,4.1,2.9,7.6,6.9,8.4c6.4,1.3,10.8,7.3,10.2,13.8C255.3,123.05,249.8,128.05,243.2,128.05z"/>
	<path style="fill:#428DFF;" d="M153.6,213.35c0,9.4,7.6,17.1,17.1,17.1h17.1c3,0,6-0.8,8.5-2.4c2.6,1.5,5.5,2.4,8.5,2.4h17.1
		c9.4,0,17.1-7.6,17.1-17.1v-17.1c0-9.4-7.6-17.1-17.1-17.1h-17.1c-3,0-6,0.8-8.5,2.4c-2.6-1.5-5.5-2.4-8.5-2.4h-17.1
		c-9.4,0-17.1,7.6-17.1,17.1V213.35z M221.9,196.35v17.1h-17.1v-17.1H221.9z M170.7,196.35h17.1v17.1h-17.1V196.35z"/>
</g>
<g>
</g>
<g>
</g>
<g>
</g>
<g>
</g>
<g>
</g>
<g>
</g>
<g>
</g>
<g>
</g>
<g>
</g>
<g>
</g>
<g>
</g>
<g>
</g>
<g>
</g>
<g>
</g>
<g>
</g>
</svg>
